<svg xmlns="http://www.w3.org/2000/svg" viewBox="0 0 720 900" role="img" aria-labelledby="title desc">
  <title id="title">Mock portrait of Ayanda Mbeki</title>
  <desc id="desc">Illustrated member portrait for profile gallery previews.</desc>
  <defs>
    <linearGradient id="bg" x1="0" x2="1" y1="0" y2="1">
      <stop offset="0%" stop-color="#d7eadf"/>
      <stop offset="100%" stop-color="#5e907e"/>
    </linearGradient>
  </defs>
  <rect width="720" height="900" fill="url(#bg)"/>
  <circle cx="150" cy="170" r="130" fill="rgba(255,255,255,0.18)"/>
  <rect x="116" y="114" width="488" height="650" rx="56" fill="rgba(255,255,255,0.28)"/>
  <ellipse cx="360" cy="324" rx="165" ry="196" fill="#2f3f33"/>
  <ellipse cx="360" cy="374" rx="128" ry="156" fill="#bf835d"/>
  <path d="M214 720c32-86 76-140 146-140 67 0 110 54 144 140H214Z" fill="#f2ede6"/>
  <path d="M280 336c30-20 54-28 80-28 34 0 68 12 98 32" fill="none" stroke="#253029" stroke-linecap="round" stroke-width="20"/>
  <circle cx="312" cy="394" r="11" fill="#2f2924"/>
  <circle cx="410" cy="394" r="11" fill="#2f2924"/>
  <path d="M320 462c24 18 56 18 80 0" fill="none" stroke="#8d4c35" stroke-linecap="round" stroke-width="12"/>
  <rect x="150" y="92" width="420" height="78" rx="39" fill="rgba(255,255,255,0.7)"/>
  <text x="360" y="140" fill="#325b4c" font-family="Georgia, 'Times New Roman', serif" font-size="34" text-anchor="middle">Ayanda Mbeki</text>
</svg>
