<svg xmlns="http://www.w3.org/2000/svg" viewBox="0 0 720 900" role="img" aria-labelledby="title desc">
  <title id="title">Mock portrait of Zara Patel</title>
  <desc id="desc">Illustrated member portrait for profile gallery previews.</desc>
  <defs>
    <linearGradient id="bg" x1="0" x2="1" y1="0" y2="1">
      <stop offset="0%" stop-color="#f8e4ba"/>
      <stop offset="100%" stop-color="#d0b06f"/>
    </linearGradient>
  </defs>
  <rect width="720" height="900" fill="url(#bg)"/>
  <circle cx="570" cy="130" r="122" fill="rgba(255,255,255,0.18)"/>
  <rect x="110" y="124" width="500" height="640" rx="50" fill="rgba(255,255,255,0.26)"/>
  <ellipse cx="360" cy="336" rx="160" ry="188" fill="#362312"/>
  <ellipse cx="360" cy="378" rx="128" ry="154" fill="#cf946f"/>
  <path d="M236 716c34-98 78-136 124-136 48 0 94 36 124 136H236Z" fill="#4d3f35"/>
  <circle cx="310" cy="394" r="11" fill="#2f2924"/>
  <circle cx="410" cy="394" r="11" fill="#2f2924"/>
  <path d="M320 460c22 22 58 22 80 0" fill="none" stroke="#8d4c35" stroke-linecap="round" stroke-width="12"/>
  <path d="M250 334c42-22 76-32 110-32 48 0 90 12 118 34" fill="none" stroke="#2f2114" stroke-linecap="round" stroke-width="18"/>
  <rect x="170" y="94" width="380" height="74" rx="37" fill="rgba(255,255,255,0.68)"/>
  <text x="360" y="140" fill="#6a4d1d" font-family="Georgia, 'Times New Roman', serif" font-size="34" text-anchor="middle">Zara Patel</text>
</svg>
